# xmcd
#
# Track frame offsets: 
#        150
#        1442
#        20846
#        36033
#        79335
#        91491
#        111137
#        127177
#        146748
#        166054
#        179088
#        210442
#
# Disc length: 3211 seconds
#
# Revision: 3
# Processed by: cddbd v1.5.2PL0 Copyright (c) Steve Scherf et al.
# Submitted via: ExactAudioCopy v1.0b4
#
DISCID=a60c890c
DTITLE=Smokin' Joe Kubek and Bnois King - My Heart's In Texas
DYEAR=2006
DGENRE=Texas Blues
TTITLE0=Introduction
TTITLE1=Burnin' To The Ground
TTITLE2=I Saw It Coming
TTITLE3=Where I Want To Be
TTITLE4=My Heart's In Texas
TTITLE5=Tell Me Why
TTITLE6=Better Be Getting It On
TTITLE7=Make It Right
TTITLE8=She's Too Busy
TTITLE9=Boogie On Down
TTITLE10=That's Alright
TTITLE11=Healthy Mama
EXTD=
EXTT0=
EXTT1=
EXTT2=
EXTT3=
EXTT4=
EXTT5=
EXTT6=
EXTT7=
EXTT8=
EXTT9=
EXTT10=
EXTT11=
PLAYORDER=
